<?xml version="1.0" encoding="utf-8"?>
<!-- Generator: Adobe Illustrator 24.0.3, SVG Export Plug-In . SVG Version: 6.00 Build 0)  -->
<!DOCTYPE svg PUBLIC "-//W3C//DTD SVG 1.1//EN" "http://www.w3.org/Graphics/SVG/1.1/DTD/svg11.dtd" [
	<!ENTITY ns_extend "http://ns.adobe.com/Extensibility/1.0/">
	<!ENTITY ns_ai "http://ns.adobe.com/AdobeIllustrator/10.0/">
	<!ENTITY ns_graphs "http://ns.adobe.com/Graphs/1.0/">
	<!ENTITY ns_vars "http://ns.adobe.com/Variables/1.0/">
	<!ENTITY ns_imrep "http://ns.adobe.com/ImageReplacement/1.0/">
	<!ENTITY ns_sfw "http://ns.adobe.com/SaveForWeb/1.0/">
	<!ENTITY ns_custom "http://ns.adobe.com/GenericCustomNamespace/1.0/">
	<!ENTITY ns_adobe_xpath "http://ns.adobe.com/XPath/1.0/">
]>
<svg version="1.1" id="Layer_1" xmlns:x="&ns_extend;" xmlns:i="&ns_ai;" xmlns:graph="&ns_graphs;"
	 xmlns="http://www.w3.org/2000/svg" xmlns:xlink="http://www.w3.org/1999/xlink" x="0px" y="0px" viewBox="0 0 221.2 221.2"
	 style="enable-background:new 0 0 221.2 221.2;" xml:space="preserve">
<style type="text/css">
	.st0{fill:#FF4141;}
	.st1{fill:url(#SVGID_1_);}
	.st2{fill-rule:evenodd;clip-rule:evenodd;fill:#FFFFFF;}
</style>
<metadata>
	<sfw  xmlns="&ns_sfw;">
		<slices></slices>
		<sliceSourceBounds  bottomLeftOrigin="true" height="221.2" width="221.2" x="0" y="0"></sliceSourceBounds>
	</sfw>
</metadata>
<path class="st0" d="M0,110.6C0,49.6,49.6,0,110.6,0s110.6,49.6,110.6,110.6s-49.6,110.6-110.6,110.6S0,171.7,0,110.6z"/>
<linearGradient id="SVGID_1_" gradientUnits="userSpaceOnUse" x1="-572.6012" y1="497.3789" x2="-571.4301" y2="496.5103" gradientTransform="matrix(141.101 0 0 -190.241 80873.8906 94705.5469)">
	<stop  offset="1.304348e-02" style="stop-color:#CC3434"/>
	<stop  offset="0.9783" style="stop-color:#FF4141"/>
</linearGradient>
<path class="st1" d="M128,219.8l-30.8-30.2l13,1l0.2-11.3l-29.2-27.7l-3.8-38.9l33.5,39.1l2.3-122.2l105.3,105.3
	C208.7,178.7,172.8,212.8,128,219.8z"/>
<path class="st2" d="M83,78.6v52.1c0,15.2,12.4,27.6,27.6,27.6s27.6-12.4,27.6-27.6V57.5c0-15.2-12.4-27.6-27.6-27.6
	S83,42.3,83,57.5v0.4h12.6c1,0,1.8,0.8,1.8,1.8l0,0v0.4c0,1-0.8,1.8-1.8,1.8H83v4.1h12.6c1,0,1.8,0.8,1.8,1.8l0,0v0.4
	c0,1-0.8,1.8-1.8,1.8H83v4.1h12.6c1,0,1.8,0.8,1.8,1.8l0,0v0.4c0,1-0.8,1.8-1.8,1.8H83z M112.7,187.2v-20.7
	c8.7-0.5,17-4.2,23.2-10.4c6.7-6.7,10.5-15.8,10.5-25.3v-15.4c0-1.4-1.2-2.6-2.6-2.6h0c-1.4,0-2.6,1.2-2.6,2.6v15.4
	c0,8.1-3.2,15.9-9,21.6s-13.5,9-21.6,9s-15.9-3.2-21.6-9c-5.7-5.7-9-13.5-9-21.6v-15.4c0-1.4-1.2-2.6-2.6-2.6h0
	c-1.4,0-2.6,1.2-2.6,2.6v15.4c0,9.5,3.8,18.6,10.5,25.3c6.2,6.2,14.5,9.9,23.2,10.4v20.7h-9.3c-1,0-1.8,0.8-1.8,1.8v0.4
	c0,1,0.8,1.8,1.8,1.8h22.7c1,0,1.8-0.8,1.8-1.8V189c0-1-0.8-1.8-1.8-1.8H112.7z"/>
</svg>
